<svg width="79" height="71" viewBox="0 0 79 71" fill="none" xmlns="http://www.w3.org/2000/svg">
<path d="M23.5472 36.1294L20.9914 37.3762C19.1212 34.0386 18.1404 30.3134 18.1404 26.5C18.1404 23.706 18.6556 21.03 19.5959 18.5621L22.5244 19.9668C22.8132 20.1053 23.1181 20.171 23.4184 20.171C24.1899 20.171 24.9305 19.7377 25.2865 18.9955C25.7809 17.9646 25.3462 16.7279 24.3151 16.2334L21.4237 14.8465C25.0175 8.98547 31.2354 4.89919 38.4296 4.23565V7.34951C38.4296 8.49294 39.3565 9.41982 40.4999 9.41982C41.6433 9.41982 42.5702 8.49294 42.5702 7.34951V4.2341C45.0368 4.45863 47.4234 5.08676 49.6891 6.10949C50.731 6.57997 51.9573 6.11632 52.4278 5.07444C52.8983 4.03224 52.4348 2.8061 51.3927 2.33562C47.9594 0.78589 44.2946 0 40.4998 0C33.4214 0 26.7667 2.75641 21.7614 7.7616C16.7563 12.7669 13.9998 19.4216 13.9998 26.5C13.9998 31.7306 15.5523 36.8178 18.4896 41.2111C18.8852 41.8027 19.5393 42.131 20.212 42.131C20.5178 42.131 20.8275 42.0632 21.1185 41.9212L25.3626 39.8509C26.3903 39.3496 26.817 38.1102 26.3157 37.0825C25.8144 36.0549 24.5749 35.6283 23.5472 36.1294Z" fill="#2F3035"/>
<path fill-rule="evenodd" clip-rule="evenodd" d="M56.4139 7.70921C57.2362 7.14888 58.3404 7.2526 59.0439 7.95599C59.7473 8.65958 59.8509 9.76389 59.2908 10.5861C57.1792 13.6839 46.5616 29.222 44.8917 30.8919C43.6808 32.1027 42.0903 32.7081 40.4999 32.7081C38.9095 32.7081 37.3189 32.1027 36.108 30.8919C33.6864 28.4702 33.6864 24.53 36.108 22.1082C37.7779 20.4384 53.3161 9.82072 56.4139 7.70921ZM39.036 27.964C39.8431 28.7713 41.1566 28.7713 41.9637 27.964C42.6047 27.3154 45.7509 22.9041 49.5237 17.4763C44.0959 21.2492 39.6844 24.3954 39.0356 25.0366C38.2287 25.8438 38.2288 27.1569 39.036 27.964Z" fill="#2F3035"/>
<path fill-rule="evenodd" clip-rule="evenodd" d="M0.799805 69.9C0.799805 69.9667 0.833138 70 0.899805 70L4.4798 69.98C5.26647 69.9667 5.97314 69.7733 6.5998 69.4C7.22647 69.0267 7.72647 68.5267 8.0998 67.9C8.47314 67.26 8.65981 66.5533 8.65981 65.78V60.04C8.65981 59.3067 8.4798 58.64 8.1198 58.04C7.7598 57.4267 7.27314 56.94 6.6598 56.58C6.0598 56.22 5.39314 56.0467 4.65981 56.06L0.919805 56.08C0.866471 56.08 0.839805 56.1067 0.839805 56.16L0.799805 69.9ZM4.4798 67.54H3.2398L3.2598 58.48L4.65981 58.46C5.08647 58.4467 5.45314 58.6 5.7598 58.92C6.0798 59.2267 6.2398 59.5933 6.2398 60.02V65.78C6.2398 66.26 6.06647 66.6733 5.7198 67.02C5.38647 67.3667 4.97314 67.54 4.4798 67.54Z" fill="#2F3035"/>
<path fill-rule="evenodd" clip-rule="evenodd" d="M10.2334 69.9C10.2334 69.9667 10.2601 70 10.3134 70H12.5734C12.6267 70 12.6534 69.9667 12.6534 69.9L12.6734 64.02H13.9934C14.4867 64.02 14.9001 64.2 15.2334 64.56C15.5801 64.9067 15.7534 65.32 15.7534 65.8V69.94C15.7534 69.98 15.7801 70 15.8334 70H18.0934C18.1601 70 18.1934 69.9667 18.1934 69.9L18.1734 65.8C18.1734 64.72 17.8134 63.78 17.0934 62.98C17.2534 62.8467 17.4334 62.6467 17.6334 62.38C17.8334 62.1 18.0067 61.7667 18.1534 61.38C18.3001 60.98 18.3734 60.5333 18.3734 60.04C18.3734 59.2933 18.1934 58.6267 17.8334 58.04C17.4734 57.44 16.9867 56.9667 16.3734 56.62C15.7734 56.26 15.1134 56.08 14.3934 56.08H10.3534C10.3001 56.08 10.2734 56.1067 10.2734 56.16L10.2334 69.9ZM14.3934 61.62H12.6734V58.48H14.3934C14.8201 58.48 15.1867 58.6333 15.4934 58.94C15.8134 59.2467 15.9734 59.6133 15.9734 60.04C15.9734 60.48 15.8134 60.8533 15.4934 61.16C15.1734 61.4667 14.8067 61.62 14.3934 61.62Z" fill="#2F3035"/>
<path d="M19.8818 69.9C19.8818 69.9667 19.9152 70 19.9818 70H22.2418C22.2952 70 22.3218 69.9667 22.3218 69.9L22.3018 56.16C22.3018 56.1067 22.2752 56.08 22.2218 56.08H19.9818C19.9285 56.08 19.9018 56.1067 19.9018 56.16L19.8818 69.9Z" fill="#2F3035"/>
<path d="M26.2211 69.9C26.2344 69.9667 26.2677 70 26.3211 70H28.7411C28.7944 70 28.8277 69.9667 28.8411 69.9L31.5611 56.16C31.5744 56.1067 31.5477 56.08 31.4811 56.08H29.2411C29.1877 56.08 29.1544 56.1067 29.1411 56.16L27.5411 65.32L25.9011 56.16C25.8877 56.1067 25.8544 56.08 25.8011 56.08H23.5411C23.4744 56.08 23.4477 56.1067 23.4611 56.16L26.2211 69.9Z" fill="#2F3035"/>
<path d="M32.7334 69.9C32.7334 69.9667 32.7601 70 32.8134 70H39.2734C39.3267 70 39.3534 69.9733 39.3534 69.92V67.64C39.3534 67.5733 39.3267 67.54 39.2734 67.54H35.1534V64.04H39.2734C39.3267 64.04 39.3534 64.0133 39.3534 63.96L39.3334 61.7C39.3334 61.6467 39.3067 61.62 39.2534 61.62H35.1534V58.5H39.2534C39.3067 58.5 39.3334 58.4733 39.3334 58.42V56.18C39.3334 56.1133 39.3067 56.08 39.2534 56.08H32.8334C32.7801 56.08 32.7534 56.1067 32.7534 56.16L32.7334 69.9Z" fill="#2F3035"/>
<path d="M44.1006 69.9C44.1006 69.9667 44.1273 70 44.1806 70H46.4406C46.4939 70 46.5206 69.9667 46.5206 69.9L46.5406 59.7L48.6206 62.74L50.7206 59.7L50.7406 69.9C50.7406 69.9667 50.7673 70 50.8206 70H53.0806C53.1339 70 53.1606 69.9667 53.1606 69.9L53.1206 56.16C53.1206 56.1067 53.0939 56.08 53.0406 56.08H50.5806C50.5273 56.08 50.4806 56.1067 50.4406 56.16L48.6206 58.8L46.8006 56.16C46.7606 56.1067 46.7139 56.08 46.6606 56.08H44.2206C44.1673 56.08 44.1406 56.1067 44.1406 56.16L44.1006 69.9Z" fill="#2F3035"/>
<path fill-rule="evenodd" clip-rule="evenodd" d="M56.5628 69.66C57.1628 70.02 57.8228 70.2 58.5428 70.2C59.2628 70.2 59.9161 70.02 60.5028 69.66C61.1028 69.2867 61.5761 68.8 61.9228 68.2C62.2828 67.5867 62.4628 66.9133 62.4628 66.18L62.4428 59.84C62.4428 59.1067 62.2628 58.44 61.9028 57.84C61.5561 57.24 61.0894 56.76 60.5028 56.4C59.9161 56.04 59.2628 55.86 58.5428 55.86C57.8361 55.86 57.1828 56.04 56.5828 56.4C55.9828 56.76 55.5028 57.24 55.1428 57.84C54.7961 58.44 54.6228 59.1067 54.6228 59.84L54.6028 66.18C54.6028 66.9133 54.7828 67.5867 55.1428 68.2C55.5028 68.8 55.9761 69.2867 56.5628 69.66ZM59.5828 67.3C59.2894 67.62 58.9428 67.78 58.5428 67.78C58.1294 67.78 57.7761 67.6267 57.4828 67.32C57.1894 67 57.0428 66.62 57.0428 66.18V59.84C57.0428 59.3867 57.1894 59.0133 57.4828 58.72C57.7761 58.4133 58.1294 58.26 58.5428 58.26C58.9694 58.26 59.3228 58.4133 59.6028 58.72C59.8828 59.0267 60.0228 59.4 60.0228 59.84L60.0428 66.18C60.0428 66.5933 59.8894 66.9667 59.5828 67.3Z" fill="#2F3035"/>
<path d="M65.6495 69.9C65.6495 69.9667 65.6762 70 65.7295 70H67.9895C68.0428 70 68.0695 69.9667 68.0695 69.9L68.0495 58.5H70.6695C70.7228 58.5 70.7495 58.4667 70.7495 58.4V56.16C70.7495 56.1067 70.7162 56.08 70.6495 56.08H63.0495C62.9962 56.08 62.9695 56.1067 62.9695 56.16L62.9495 58.4C62.9495 58.4667 62.9828 58.5 63.0495 58.5H65.6495V69.9Z" fill="#2F3035"/>
<path fill-rule="evenodd" clip-rule="evenodd" d="M73.0081 69.66C73.6081 70.02 74.2681 70.2 74.9881 70.2C75.7081 70.2 76.3614 70.02 76.9481 69.66C77.5481 69.2867 78.0214 68.8 78.3681 68.2C78.7281 67.5867 78.9081 66.9133 78.9081 66.18L78.8881 59.84C78.8881 59.1067 78.7081 58.44 78.3481 57.84C78.0014 57.24 77.5348 56.76 76.9481 56.4C76.3614 56.04 75.7081 55.86 74.9881 55.86C74.2814 55.86 73.6281 56.04 73.0281 56.4C72.4281 56.76 71.9481 57.24 71.5881 57.84C71.2414 58.44 71.0681 59.1067 71.0681 59.84L71.0481 66.18C71.0481 66.9133 71.2281 67.5867 71.5881 68.2C71.9481 68.8 72.4214 69.2867 73.0081 69.66ZM76.0281 67.3C75.7347 67.62 75.3881 67.78 74.9881 67.78C74.5748 67.78 74.2214 67.6267 73.9281 67.32C73.6348 67 73.4881 66.62 73.4881 66.18V59.84C73.4881 59.3867 73.6348 59.0133 73.9281 58.72C74.2214 58.4133 74.5748 58.26 74.9881 58.26C75.4147 58.26 75.7681 58.4133 76.0481 58.72C76.3281 59.0267 76.4681 59.4 76.4681 59.84L76.4881 66.18C76.4881 66.5933 76.3347 66.9667 76.0281 67.3Z" fill="#2F3035"/>
<path d="M61.9253 14.5721C62.9678 14.1015 64.1938 14.5652 64.6642 15.6073C66.214 19.0404 66.9999 22.7053 66.9999 26.5C66.9999 31.7307 65.4473 36.8179 62.51 41.2113C62.1149 41.8024 61.4607 42.1311 60.7878 42.1311C60.488 42.1311 60.1848 42.066 59.8988 41.9299L55.5512 39.8596C54.5188 39.368 54.0804 38.1325 54.572 37.1002C55.0637 36.0678 56.2992 35.6296 57.3313 36.1211L59.9996 37.3917C61.8752 34.0504 62.8593 30.3191 62.8593 26.5C62.8593 23.2966 62.1969 20.2049 60.8903 17.3109C60.4198 16.2688 60.8832 15.0426 61.9253 14.5721Z" fill="#2F3035"/>
</svg>
